<?xml version="1.0" encoding="iso-8859-1"?>
<!-- Generator: Adobe Illustrator 19.0.0, SVG Export Plug-In . SVG Version: 6.00 Build 0)  -->
<svg version="1.1" id="Layer_1" xmlns="http://www.w3.org/2000/svg" xmlns:xlink="http://www.w3.org/1999/xlink" x="0px" y="0px"
	 viewBox="0 0 512 512" style="enable-background:new 0 0 512 512;" xml:space="preserve" fill="url(#linear-gradient)">
    <linearGradient id="linear-gradient">
        <stop offset="0%" stop-color="#2588cb"/>
        <stop offset="100%" stop-color="#1166be"/>
    </linearGradient>
<g>
	<g>
		<path d="M381,0c-55.283,0-81.519,35.043-100.675,60.63C271.327,72.648,262.829,84,256,84c-6.829,0-15.327-11.352-24.325-23.37
			C212.519,35.043,186.283,0,131,0C58.767,0,0,58.767,0,131c0,35.406,4.029,65.542,56.168,131.218
			c22.157,27.909,33.105,81.443,42.764,128.675c6.186,30.245,12.028,58.813,20.378,80.441c3.883,10.058,15.7,40.666,42.835,40.666
			c17.585,0,31.756-11.38,43.323-34.792c8.986-18.187,15.427-41.356,21.656-63.763c5.123-18.425,9.961-35.829,15.655-48.411
			C247.461,354.694,252.156,349,256,349s8.539,5.694,13.219,16.035c5.694,12.582,10.533,29.985,15.655,48.411
			c6.229,22.407,12.67,45.576,21.656,63.763C318.098,500.62,332.269,512,349.854,512c27.135,0,38.952-30.608,42.835-40.666
			c8.35-21.628,14.193-50.196,20.378-80.441c9.659-47.232,20.607-100.766,42.764-128.675C507.971,196.542,512,166.406,512,131
			C512,58.767,453.233,0,381,0z M52.581,224c-2.904-4.188-5.551-8.184-7.961-12H187v12H52.581z M440.168,249.782
			c-25.129,31.654-36.092,85.261-46.695,137.103C382.905,438.563,371.976,492,349.854,492c-22.383,0-35.317-46.526-45.71-83.911
			C292.346,365.651,282.157,329,256,329c-26.157,0-36.346,36.651-48.144,79.089C197.463,445.474,184.529,492,162.146,492
			c-22.122,0-33.051-53.437-43.619-105.115c-10.603-51.842-21.565-105.45-46.695-137.103c-1.559-1.963-3.068-3.889-4.534-5.782H187
			v17c0,5.523,4.477,10,10,10h118c5.523,0,10-4.477,10-10v-17h119.702C443.236,245.893,441.727,247.819,440.168,249.782z M207,251
			v-17v-32v-17h98v17v32v17H207z M459.419,224H325v-12h142.38C464.97,215.816,462.323,219.812,459.419,224z M325,192v-17
			c0-5.523-4.477-10-10-10H197c-5.523,0-10,4.477-10,10v17H33.268C20.006,165.318,20,148.464,20,131C20,69.794,69.794,20,131,20
			c45.272,0,67.115,29.175,84.665,52.617C228.273,89.457,239.161,104,256,104s27.727-14.543,40.335-31.383
			C313.885,49.175,335.728,20,381,20c61.206,0,111,49.794,111,111c0,17.464-0.006,34.318-13.268,61H325z"/>
	</g>
</g>
<g>
	<g>
		<path d="M82.18,169.545l-0.013-0.041c-1.586-5.29-7.149-8.25-12.439-6.663c-5.29,1.587-8.279,7.203-6.692,12.493
			c1.298,4.328,5.261,7.11,9.557,7.11c0.955,0,1.926-0.138,2.888-0.426C80.771,180.431,83.767,174.835,82.18,169.545z"/>
	</g>
</g>
<g>
	<g>
		<path d="M146.208,58c-46.169,0-84.822,36.044-87.996,82.057c-0.38,5.51,3.778,10.284,9.288,10.664
			c0.234,0.017,0.467,0.024,0.698,0.024c5.209,0,9.602-4.037,9.966-9.313C80.618,105.863,110.506,78,146.208,78
			c5.523,0,10-4.477,10-10S151.731,58,146.208,58z"/>
	</g>
</g>
<g>
	<g>
		<path d="M260,203h-8c-5.523,0-10,4.477-10,10v10c0,5.523,4.477,10,10,10h8c5.523,0,10-4.477,10-10v-10
			C270,207.477,265.523,203,260,203z"/>
	</g>
</g>
<g>
</g>
<g>
</g>
<g>
</g>
<g>
</g>
<g>
</g>
<g>
</g>
<g>
</g>
<g>
</g>
<g>
</g>
<g>
</g>
<g>
</g>
<g>
</g>
<g>
</g>
<g>
</g>
<g>
</g>
</svg>
