<svg xmlns="http://www.w3.org/2000/svg" width="20" height="15" viewBox="0 0 20 15"><g><g><path fill="#fff" d="M.216 14.24a18.052 18.052 0 0 1-.144-1.392c-.032-.48-.048-.832-.048-1.056 0-2.144.384-4.184 1.152-6.12.768-1.936 1.712-3.576 2.832-4.92l4.848 1.104c-.608 1.376-1.096 2.936-1.464 4.68-.368 1.744-.552 3.4-.552 4.968v.408c0 .208.008.448.024.72l.048.84a8.8 8.8 0 0 0 .072.768zm10.32 0a18.105 18.105 0 0 1-.144-1.392c-.032-.48-.048-.832-.048-1.056 0-2.144.384-4.184 1.152-6.12.768-1.936 1.712-3.576 2.832-4.92l4.848 1.104c-.608 1.376-1.096 2.936-1.464 4.68-.368 1.744-.552 3.4-.552 4.968v.408c0 .208.008.448.024.72l.048.84c.016.288.04.544.072.768z"/></g></g></svg>