<?xml version="1.0" encoding="iso-8859-1"?>
<!-- Generator: Adobe Illustrator 19.0.0, SVG Export Plug-In . SVG Version: 6.00 Build 0)  -->
<svg version="1.1" id="Layer_1" xmlns="http://www.w3.org/2000/svg" xmlns:xlink="http://www.w3.org/1999/xlink" x="0px" y="0px"
	 viewBox="0 0 512 512" style="enable-background:new 0 0 512 512;" xml:space="preserve">
<g>
	<g>
		<path d="M82.179,169.546l-0.013-0.042c-1.586-5.289-7.15-8.251-12.439-6.663c-5.29,1.587-8.279,7.203-6.692,12.493
			c1.298,4.328,5.261,7.11,9.557,7.11c0.955,0,1.927-0.137,2.888-0.425C80.77,180.432,83.766,174.836,82.179,169.546z"/>
	</g>
</g>
<g>
	<g>
		<path d="M146.208,58c-46.17,0-84.822,36.044-87.996,82.058c-0.38,5.51,3.778,10.284,9.288,10.664
			c0.234,0.016,0.467,0.024,0.698,0.024c5.209,0,9.602-4.038,9.967-9.313C80.619,105.863,110.507,78,146.208,78
			c5.523,0,10-4.477,10-10S151.731,58,146.208,58z"/>
	</g>
</g>
<g>
	<g>
		<path d="M476.133,40.942c-2.816-2.974-7.159-3.927-10.962-2.412c-2.51,1-4.451,2.945-5.48,5.329l-29.175,65.577
			c-1.376,3.094-1.094,6.674,0.75,9.513s5,4.552,8.386,4.552h3.133l-50.82,68.041c-0.261,0.349-0.38,0.508-0.956,0.241
			c-0.576-0.269-0.53-0.463-0.43-0.887l17.655-75.107c0.699-2.974,0.001-6.104-1.896-8.498c-1.897-2.395-4.783-3.791-7.838-3.791
			h-24.801l25.604-90.786c0.85-3.014,0.24-6.253-1.651-8.75C395.762,1.467,392.811,0,389.679,0H381
			c-55.283,0-81.519,35.043-100.675,60.63C271.327,72.648,262.829,84,256,84s-15.327-11.352-24.325-23.37
			C212.519,35.043,186.283,0,131,0C58.767,0,0,58.767,0,131c0,35.406,4.029,65.542,56.169,131.218
			c22.157,27.909,33.105,81.443,42.764,128.675c6.185,30.245,12.028,58.813,20.378,80.441c3.883,10.058,15.7,40.666,42.835,40.666
			c17.585,0,31.756-11.38,43.324-34.791c8.986-18.187,15.427-41.356,21.656-63.763c5.122-18.426,9.961-35.829,15.655-48.411
			C247.461,354.694,252.156,349,256,349s8.539,5.694,13.22,16.034c5.694,12.582,10.532,29.986,15.655,48.411
			c6.229,22.407,12.67,45.576,21.656,63.763C318.098,500.62,332.269,512,349.854,512c27.135,0,38.952-30.608,42.836-40.666
			c8.35-21.628,14.192-50.196,20.378-80.441c9.659-47.232,20.607-100.766,42.764-128.675C507.971,196.542,512,166.406,512,131
			C512,97.35,499.263,65.366,476.133,40.942z M440.168,249.782c-25.13,31.653-36.092,85.261-46.695,137.103
			C382.905,438.563,371.976,492,349.854,492c-22.383,0-35.317-46.526-45.71-83.911C292.346,365.651,282.157,329,256,329
			c-26.157,0-36.346,36.651-48.144,79.089C197.463,445.474,184.529,492,162.146,492c-22.122,0-33.051-53.437-43.619-105.115
			c-10.603-51.842-21.566-105.45-46.695-137.103C20,184.494,20,158.51,20,131C20,69.794,69.794,20,131,20
			c45.272,0,67.115,29.175,84.665,52.617C228.273,89.457,239.161,104,256,104s27.727-14.543,40.336-31.382
			c16.95-22.642,37.905-50.63,80.105-52.517l-25.577,90.685c-0.85,3.014-0.24,6.253,1.651,8.75c1.89,2.497,4.841,3.964,7.973,3.964
			h25.389l-14.767,62.819c-2.277,9.686,2.432,19.386,11.45,23.59c9.02,4.205,19.476,1.572,25.43-6.399l62.759-84.026
			c2.264-3.032,2.624-7.082,0.928-10.465c-1.696-3.383-5.156-5.519-8.94-5.519h-7.689l16.402-36.867
			C484.789,85.327,492,107.69,492,131C492,158.51,492,184.494,440.168,249.782z"/>
	</g>
</g>
<g>
</g>
<g>
</g>
<g>
</g>
<g>
</g>
<g>
</g>
<g>
</g>
<g>
</g>
<g>
</g>
<g>
</g>
<g>
</g>
<g>
</g>
<g>
</g>
<g>
</g>
<g>
</g>
<g>
</g>
</svg>
