<?xml version="1.0" encoding="iso-8859-1"?>
<!-- Generator: Adobe Illustrator 19.0.0, SVG Export Plug-In . SVG Version: 6.00 Build 0)  -->
<svg version="1.1" id="Layer_1" xmlns="http://www.w3.org/2000/svg" xmlns:xlink="http://www.w3.org/1999/xlink" x="0px" y="0px"
	 viewBox="0 0 512 512" style="enable-background:new 0 0 512 512;" xml:space="preserve">
<g>
	<g>
		<path d="M82.195,169.597l-0.012-0.042c-1.558-5.297-7.102-8.288-12.403-6.73c-5.298,1.559-8.319,7.159-6.76,12.457
			c1.28,4.353,5.256,7.162,9.572,7.162c0.937,0,1.891-0.132,2.837-0.411C80.728,180.475,83.754,174.895,82.195,169.597z"/>
	</g>
</g>
<g>
	<g>
		<path d="M146.207,58c-46.168,0-84.82,36.043-87.996,82.057c-0.38,5.51,3.778,10.285,9.288,10.665
			c0.234,0.016,0.467,0.024,0.698,0.024c5.21,0,9.603-4.037,9.967-9.312C80.618,105.863,110.507,78,146.207,78
			c5.522,0,10-4.477,10-10S151.729,58,146.207,58z"/>
	</g>
</g>
<g>
	<g>
		<path d="M381,0c-55.283,0-81.519,35.043-100.676,60.631C271.327,72.648,262.828,84,256,84s-15.327-11.352-24.324-23.369
			C212.519,35.043,186.283,0,131,0C58.767,0,0,58.767,0,131c0,35.406,4.029,65.542,56.168,131.218
			c22.156,27.909,33.104,81.442,42.765,128.674c6.186,30.246,12.027,58.813,20.378,80.441c3.884,10.058,15.7,40.667,42.836,40.667
			c17.585,0,31.756-11.38,43.323-34.792c8.986-18.187,15.427-41.356,21.656-63.763c5.122-18.426,9.96-35.829,15.655-48.411
			C247.461,354.694,252.156,349,256,349s8.539,5.694,13.219,16.035c5.695,12.582,10.533,29.985,15.655,48.411
			c6.229,22.406,12.67,45.576,21.656,63.763C318.098,500.62,332.269,512,349.854,512c27.136,0,38.952-30.608,42.836-40.667
			c8.351-21.628,14.192-50.196,20.378-80.441c9.66-47.232,20.608-100.766,42.765-128.674C507.971,196.542,512,166.406,512,131
			C512,58.767,453.233,0,381,0z M393.474,386.885C382.904,438.563,371.976,492,349.854,492c-22.383,0-35.317-46.526-45.71-83.911
			C292.346,365.651,282.157,329,256,329c-26.157,0-36.346,36.651-48.144,79.089C197.464,445.474,184.529,492,162.146,492
			c-22.122,0-33.051-53.438-43.62-105.115C109.568,343.079,100.35,298.016,82.548,266H143.5c26.191,0,47.5-21.309,47.5-47.5
			c0-15.164,12.336-27.5,27.5-27.5h75c15.163,0,27.5,12.336,27.5,27.5c0,26.191,21.309,47.5,47.5,47.5h60.952
			C411.65,298.016,402.432,343.079,393.474,386.885z M443.144,246H368.5c-15.164,0-27.5-12.336-27.5-27.5
			c0-26.191-21.309-47.5-47.5-47.5h-75c-26.191,0-47.5,21.309-47.5,47.5c0,15.164-12.337,27.5-35.966,27.5H68.856
			C20.007,183.482,20,157.971,20,131C20,69.794,69.794,20,131,20c45.272,0,67.115,29.175,84.665,52.617
			C228.272,89.457,239.161,104,256,104s27.728-14.543,40.335-31.383C313.885,49.175,335.728,20,381,20c61.206,0,111,49.794,111,111
			C492,157.971,491.993,183.482,443.144,246z"/>
	</g>
</g>
<g>
</g>
<g>
</g>
<g>
</g>
<g>
</g>
<g>
</g>
<g>
</g>
<g>
</g>
<g>
</g>
<g>
</g>
<g>
</g>
<g>
</g>
<g>
</g>
<g>
</g>
<g>
</g>
<g>
</g>
</svg>
