<?xml version="1.0" encoding="iso-8859-1"?>
<!-- Generator: Adobe Illustrator 19.0.0, SVG Export Plug-In . SVG Version: 6.00 Build 0)  -->
<svg version="1.1" id="Layer_1" xmlns="http://www.w3.org/2000/svg" xmlns:xlink="http://www.w3.org/1999/xlink" x="0px" y="0px"
	 viewBox="0 0 512.001 512.001" style="enable-background:new 0 0 512.001 512.001;" xml:space="preserve">

      <linearGradient id="linear-gradient">
        <stop offset="0%" stop-color="#2588cb"/>
        <stop offset="100%" stop-color="#1166be"/>
    </linearGradient>
<g>
	<g>
		<path fill="url(#linear-gradient)" d="M110.709,155.424l-0.01-0.037c-1.405-5.341-6.863-8.496-12.206-7.089c-5.341,1.406-8.521,6.912-7.116,12.253
			c1.18,4.484,5.222,7.44,9.65,7.44c0.844,0,1.704-0.108,2.561-0.333C108.929,166.253,112.114,160.765,110.709,155.424z"/>
	</g>
</g>
<g>
	<g>
		<path fill="url(#linear-gradient)" d="M160.001,54.506c-38.064,0-69.901,32.723-72.48,74.496c-0.34,5.512,3.852,10.257,9.365,10.597
			c0.21,0.014,0.418,0.02,0.626,0.02c5.241,0,9.644-4.082,9.971-9.385c1.929-31.25,24.998-55.728,52.518-55.728
			c5.522,0,10-4.477,10-10S165.523,54.506,160.001,54.506z"/>
	</g>
</g>
<g>
	<g>
		<path fill="url(#linear-gradient)" d="M445.482,35.088c-21.021-21.937-49.21-34.386-79.379-35.055c-49.435-1.109-73.645,25.391-89.686,42.917
			c-8.184,8.941-14.646,16.004-20.417,16.004s-12.233-7.063-20.417-16.004c-16.039-17.526-40.238-44.004-89.685-42.916
			C115.73,0.704,87.539,13.153,66.519,35.088C45.624,56.894,34.17,85.575,34.267,115.847c0.095,29.887,3.64,55.422,48.644,112.112
			l0.354,0.447c27.111,34.238,48.84,51.597,64.584,51.597h31.811v24.964h-1.409c-5.522,0-10,4.477-10,10s4.478,10,10,10h1.409
			v26.036h-1.409c-5.522,0-10,4.477-10,10s4.478,10,10,10h1.409v26.036h-1.409c-5.522,0-10,4.477-10,10s4.478,10,10,10h1.409v24.964
			h-1.409c-5.522,0-10,4.477-10,10s4.478,10,10,10h1.409v7.169c0,23.617,19.214,42.831,42.83,42.831h67.02
			c23.616,0,42.829-19.214,42.829-42.831v-7.169h1.409c5.522,0,10-4.477,10-10c0-5.523-4.478-10-10-10h-1.409v-24.964h1.409
			c5.522,0,10-4.477,10-10s-4.478-10-10-10h-1.409v-26.036h1.409c5.522,0,10-4.477,10-10s-4.478-10-10-10h-1.409v-26.036h1.409
			c5.522,0,10-4.477,10-10s-4.478-10-10-10h-1.409v-24.964h31.811c15.744,0,37.474-17.36,64.584-51.597l0.354-0.447
			c45.004-56.688,48.549-82.225,48.644-112.112C477.829,85.576,466.375,56.895,445.482,35.088z M312.34,324.967v26.036H199.66
			v-26.036H312.34z M199.66,304.968v-24.964H312.34v24.964H199.66z M312.34,371.002v26.036H199.66v-26.036H312.34z M312.34,417.038
			v24.964H199.66v-24.964H312.34z M312.341,469.171h-0.001c0,12.589-10.241,22.831-22.83,22.831h-67.02
			c-12.589,0-22.83-10.242-22.83-22.831v-7.169h112.681V469.171z M413.425,215.524l-0.37,0.467
			c-27.512,34.744-43.685,44.013-48.904,44.013h-41.975H189.824h-41.974c-5.22,0-21.394-9.27-48.904-44.013l-0.37-0.467
			c-44.169-55.635-44.24-78.056-44.309-99.74c-0.165-51.67,41.141-94.626,92.074-95.755c0.882-0.02,1.752-0.029,2.612-0.029
			c38.516,0,56.217,19.343,71.876,36.454c10.59,11.572,20.593,22.501,35.171,22.501s24.581-10.93,35.171-22.501
			c16.009-17.493,34.188-37.323,74.488-36.424c50.934,1.129,92.239,44.085,92.074,95.755
			C457.665,137.468,457.594,159.889,413.425,215.524z"/>
	</g>
</g>
<g>
</g>
<g>
</g>
<g>
</g>
<g>
</g>
<g>
</g>
<g>
</g>
<g>
</g>
<g>
</g>
<g>
</g>
<g>
</g>
<g>
</g>
<g>
</g>
<g>
</g>
<g>
</g>
<g>
</g>
</svg>
