<?xml version="1.0" encoding="utf-8"?>
<!-- Generator: Adobe Illustrator 17.0.1, SVG Export Plug-In . SVG Version: 6.00 Build 0)  -->
<!DOCTYPE svg PUBLIC "-//W3C//DTD SVG 1.1//EN" "http://www.w3.org/Graphics/SVG/1.1/DTD/svg11.dtd">
<svg version="1.1" xmlns="http://www.w3.org/2000/svg" xmlns:xlink="http://www.w3.org/1999/xlink" x="0px" y="0px"
	 width="415.157px" height="106.397px" viewBox="0 0 415.157 106.397" enable-background="new 0 0 415.157 106.397"
	 xml:space="preserve">
<g id="Слой_3">
</g>
<g id="Слой_2">
	<path id="path59" fill="#FFFFFF" stroke="#3F4194" stroke-width="1.6906" d="M66.945,5.076c-8.862,6.635-13.961,8.562-19.842,9.562
		c-11.662,1.963-19.433-3.427-26.441,5.754c-3.699,4.845-4.881,9.544-4.836,14.343c0.2,20.742,16.479,41.239,26.578,60.154
		C27.151,81.6,18.789,71.493,8.772,53.805C4.973,47.097,2.092,40.043,1.092,31.19c-0.809-7.126,0.227-14.18,5.317-19.797
		c5.026-5.535,10.935-6.99,17.061-6.89c6.763,0.109,13.789,2.118,20.188,2.627C51.384,7.739,56.683,7.112,66.945,5.076z"/>
	<path id="path63" fill="#3F4194" stroke="#FFFFFF" d="M45.021,61.249c-2.345,1.391-5.981,3.345-9.998,4.917
		c-3.463,1.354-10.926,3.336-17.67,3.745c-5.181,0.309-9.944-0.3-12.153-2.845c-1.845-2.136-1.491-6.99,3.381-10.535
		c-0.191,2.227,0.273,4.354,1.527,5.754c2.109,2.345,5.445,3.109,9.217,3.045C28.624,65.167,35.168,62.731,45.021,61.249z"/>
	<path id="path65" fill="#3F4194" stroke="#FFFFFF" stroke-width="0.8453" d="M45.221,75.174c-1.754,1.045-4.49,2.509-7.499,3.69
		c-2.6,1.018-8.199,2.5-13.271,2.809c-3.89,0.236-7.462-0.227-9.117-2.136c-1.391-1.6-1.118-5.245,2.536-7.908
		c-0.145,1.672,0.209,3.263,1.145,4.318c1.582,1.763,4.09,2.336,6.917,2.291C32.914,78.119,37.831,76.283,45.221,75.174z"/>
	<path id="path67" fill="#3F4194" stroke="#FFFFFF" stroke-width="0.8453" d="M48.666,85.518c-1.463,0.863-3.727,2.081-6.226,3.054
		c-2.163,0.845-6.808,2.081-11.016,2.336c-3.227,0.2-6.19-0.182-7.572-1.772c-1.145-1.327-0.927-4.354,2.109-6.563
		c-0.118,1.391,0.173,2.709,0.954,3.581c1.309,1.472,3.39,1.945,5.745,1.9C38.449,87.954,42.531,86.436,48.666,85.518z"/>
	<path id="path69" fill="#3F4194" stroke="#FFFFFF" stroke-width="0.8453" d="M51.257,94.58c0.045,4.081-1.082,8.517-3.472,11.335
		c-5.517-1.591-15.543-5.445-15.661-11.925c2.663,1.063,3.363,1.936,4.445,2.591c0.9,0.536,2.454,0.709,6.963-0.027
		C45.657,96.207,47.712,95.571,51.257,94.58z"/>
	<path id="path71" fill="#FFFFFF" stroke="#3F4194" stroke-width="2.536" d="M46.721,20.01c6.617,0.936,10.244,0.864,12.971,0.427
		c4.736-0.764,6.708-3.254,16.806-7.871c3.281-1.5,6.463-2.118,9.144-1.009c2.536,1.045,4.617,3.436,5.908,8.58
		c3.145,0.136,6.29,0.264,9.435,0.4c-0.727-3.563-1.545-7.453-3.136-10.826c-1.872-3.954-4.817-7.172-9.962-8.244
		c-6.635-1.382-14.116,4.69-20.642,9.517C60.019,16.329,55.547,17.747,46.721,20.01z"/>
	<path id="path75" display="none" fill="#FFFFFF" stroke="#808284" stroke-width="0.4181" d="M46.721,20.092
		c6.617,0.936,10.244,0.864,12.971,0.427c4.736-0.764,6.708-3.254,16.806-7.871c3.281-1.491,6.463-2.118,9.144-1.009
		c2.536,1.045,4.617,3.436,5.908,8.59c3.145,0.127,6.29,0.264,9.435,0.391c-0.727-3.554-1.545-7.453-3.136-10.816
		c-1.872-3.954-4.817-7.172-9.962-8.244c-6.635-1.382-14.116,4.69-20.642,9.508C60.019,16.411,55.547,17.829,46.721,20.092z"/>
	<g>
		<path fill="#3E4193" stroke="#3E4193" stroke-miterlimit="10" d="M58.101,84.765V38.405h26.581c4.507,0,8.056,1.12,10.646,3.359
			c2.589,2.24,3.884,5.306,3.884,9.196c0,4.031-1.253,7.293-3.759,9.784c-2.505,2.492-5.844,3.737-10.015,3.737H63.854v20.282
			H58.101z M63.854,59.066h20.45c2.911,0,5.116-0.644,6.613-1.932c1.498-1.287,2.247-3.177,2.247-5.669
			c0-2.436-0.749-4.332-2.247-5.69c-1.497-1.357-3.604-2.037-6.319-2.037H63.854V59.066z"/>
		<path fill="#3E4193" stroke="#3E4193" stroke-miterlimit="10" d="M112.061,69.102v15.663h-5.627V48.987h24.691
			c3.667,0,6.536,0.882,8.608,2.646c2.071,1.764,3.107,4.214,3.107,7.349c0,2.548-0.818,4.752-2.457,6.613
			c-1.637,1.862-3.772,3.003-6.403,3.423l9.952,15.747h-6.089l-10.162-15.663H112.061z M112.061,63.853h19.064
			c1.932,0,3.408-0.42,4.431-1.26c1.021-0.84,1.532-2.043,1.532-3.611c0-1.567-0.511-2.765-1.532-3.591
			c-1.022-0.825-2.499-1.238-4.431-1.238h-19.064V63.853z"/>
		<path fill="#3E4193" stroke="#3E4193" stroke-miterlimit="10" d="M171.816,85.899c-6.383,0-11.632-1.806-15.747-5.417
			s-6.173-8.146-6.173-13.605c0-5.486,2.051-10.016,6.152-13.584c4.101-3.569,9.356-5.354,15.768-5.354
			c6.467,0,11.751,1.778,15.852,5.333c4.102,3.556,6.152,8.091,6.152,13.605c0,5.487-2.058,10.029-6.173,13.626
			C183.532,84.1,178.255,85.899,171.816,85.899z M171.816,80.65c4.787,0,8.692-1.295,11.716-3.885
			c3.023-2.589,4.535-5.885,4.535-9.889c0-3.975-1.519-7.265-4.556-9.868c-3.038-2.604-6.937-3.905-11.695-3.905
			c-4.76,0-8.644,1.295-11.652,3.884c-3.01,2.59-4.515,5.887-4.515,9.89c0,4.004,1.505,7.3,4.515,9.889
			C163.173,79.355,167.057,80.65,171.816,80.65z"/>
		<path fill="#3E4193" stroke="#3E4193" stroke-miterlimit="10" d="M240.809,69.984l4.619,3.443
			c-2.128,4.031-5.039,7.132-8.734,9.302c-3.695,2.169-7.895,3.254-12.598,3.254c-6.943,0-12.675-2.288-17.196-6.866
			c-4.521-4.577-6.781-10.378-6.781-17.405c0-7.055,2.268-12.871,6.803-17.448s10.26-6.866,17.175-6.866
			c4.283,0,8.188,0.938,11.716,2.813c3.527,1.876,6.396,4.55,8.608,8.021l-4.829,3.443c-1.456-2.771-3.556-4.94-6.299-6.509
			c-2.744-1.567-5.81-2.352-9.196-2.352c-5.207,0-9.519,1.785-12.934,5.354c-3.416,3.569-5.123,8.083-5.123,13.542
			s1.707,9.967,5.123,13.521c3.415,3.556,7.727,5.333,12.934,5.333c3.639,0,6.872-0.896,9.7-2.688
			C236.624,76.087,238.962,73.455,240.809,69.984z"/>
		<path fill="#3E4193" stroke="#3E4193" stroke-miterlimit="10" d="M254.877,84.765V48.903h5.627V79.6h26.623v5.165H254.877z"/>
		<path fill="#3E4193" stroke="#3E4193" stroke-miterlimit="10" d="M293.594,84.765V48.82h5.711v35.945H293.594z"/>
		<path fill="#3E4193" stroke="#3E4193" stroke-miterlimit="10" d="M311.734,84.765V48.903h2.939l22.802,25.195V48.903h5.501v35.861
			h-2.939l-22.76-25.111v25.111H311.734z"/>
		<path fill="#3E4193" stroke="#3E4193" stroke-miterlimit="10" d="M355.322,84.765V48.82h5.711v35.945H355.322z"/>
		<path fill="#3E4193" stroke="#3E4193" stroke-miterlimit="10" d="M411.34,75.988c-2.044,3.22-4.724,5.676-8.042,7.37
			c-3.316,1.693-7.09,2.54-11.316,2.54c-6.299,0-11.484-1.784-15.559-5.354c-4.072-3.569-6.109-8.097-6.109-13.584
			c0-5.486,2.037-10.029,6.109-13.626c4.074-3.597,9.26-5.396,15.559-5.396c3.919,0,7.475,0.735,10.666,2.205
			s5.767,3.548,7.727,6.236l-4.451,3.107c-1.484-2.043-3.437-3.618-5.857-4.725c-2.422-1.105-5.117-1.658-8.084-1.658
			c-4.592,0-8.392,1.309-11.4,3.926c-3.01,2.618-4.515,5.9-4.515,9.848s1.512,7.229,4.535,9.847
			c3.023,2.618,6.816,3.927,11.38,3.927c3.191,0,6.005-0.63,8.44-1.89s4.577-3.219,6.425-5.879L411.34,75.988z"/>
	</g>
	<g>
	</g>
	<g>
	</g>
	<g>
	</g>
	<g>
	</g>
	<g>
	</g>
	<g>
	</g>
</g>
</svg>
